<svg xmlns="http://www.w3.org/2000/svg" viewBox="0 0 200 100">
  <rect width="200" height="100" fill="#ffffff"/>
  <path d="M30,20 L170,20 C180,25 140,45 130,60 L30,60 Z" fill="#FF7A21"/>
  <path d="M140,80 C139,95 139,100 139,105 L100,105 C100,95 100.5,90 101.5,80 Z" fill="#ED1B2D"/>
  <g fill="#006B5A">
    <path d="M50,70 L40,70 L40,80 L50,80 L50,85 L32,85 L32,55 L50,55 L50,60 L40,60 L40,65 L50,65 Z"/>
    <path d="M70,65 L70,70 L60,70 L60,75 L70,75 L70,85 L52,85 L52,55 L70,55 L70,60 L60,60 L60,65 Z"/>
    <path d="M90,85 L72,85 L72,55 L90,55 L90,60 L80,60 L80,65 L90,65 L90,70 L80,70 L80,80 L90,80 Z"/>
    <path d="M100,55 L108,55 L108,85 L100,85 Z"/>
    <path d="M118,65 C118,62 120,60 124,60 C128,60 130,62 130,65 C130,68 128,70 124,70 C120,70 118,68 118,65 Z"/>
    <path d="M140,70 C140,73 142,75 146,75 C150,75 152,73 152,70 C152,67 150,65 146,65 C142,65 140,67 140,70 Z"/>
  </g>
</svg>