<svg xmlns="http://www.w3.org/2000/svg" viewBox="0 0 200 100">
  <rect width="200" height="100" fill="#fff"/>
  <rect x="30" y="30" width="140" height="40" fill="#0066A6"/>
  <g fill="#fff">
    <path d="M40,45 h10 v5 h-10 z M40,52 h10 v5 h-10 z"/>
    <path d="M55,45 h15 l2,5 h-15 z M55,52 h17 l2,5 h-17 z"/>
    <path d="M75,45 h10 v10 h-10 z"/>
    <path d="M90,45 h10 v5 h-10 z M90,52 h10 v5 h-10 z"/>
    <path d="M105,45 h10 v10 h-10 z"/>
    <path d="M120,45 h10 v5 h-10 z M120,52 h10 v5 h-10 z"/>
    <path d="M135,45 h10 v10 h-10 z"/>
    <path d="M150,45 h10 v5 h-10 z M150,52 h10 v5 h-10 z"/>
  </g>
  <path d="M90,70 l10,-40 h10 l10,40 h-10 l-2,-5 h-15 l-2,5 z M100,55 h10 l-5,-15 z" fill="#0066A6"/>
</svg>