<svg xmlns="http://www.w3.org/2000/svg" viewBox="0 0 24 24" fill="none" stroke="currentColor" stroke-width="1.5">
  <path d="M5 7.5c0-2.5 3-4.5 7-4.5s7 2 7 4.5c0 1.5-1 2.5-2 3 2-0.5 3-2 3-3.5 0-3-4-5.5-8-5.5S4 4 4 7c0 1.5 1 3 3 3.5-1-0.5-2-1.5-2-3z" stroke-linejoin="round"/>
  <path d="M12 9.5c-3 0-5.5 1-5.5 3.5 0 1.5 1 2.5 2 3-2-0.5-3-2-3-3.5 0-3 4-5.5 8-5.5s8 2.5 8 5.5c0 1.5-1 3-3 3.5 1-0.5 2-1.5 2-3 0-2.5-2.5-3.5-5.5-3.5z" stroke-linejoin="round"/>
  <path d="M12 14.5c-3 0-5.5 1-5.5 3.5 0 1.5 1 2.5 2 3-2-0.5-3-2-3-3.5 0-3 4-5.5 8-5.5s8 2.5 8 5.5c0 1.5-1 3-3 3.5 1-0.5 2-1.5 2-3 0-2.5-2.5-3.5-5.5-3.5z" stroke-linejoin="round"/>
  <path d="M12 6v14" stroke-linecap="round"/>
  <circle cx="12" cy="6" r="1.5" fill="currentColor"/>
</svg> 