<svg xmlns="http://www.w3.org/2000/svg" viewBox="0 0 200 100">
  <rect width="200" height="100" fill="#fff"/>
  <path d="M40,25 L160,25 L160,75 L40,75 Z" fill="#fff"/>
  <path d="M55,40 C53,40 50,41 50,45 C50,49 53,50 55,50 C57,50 60,49 60,45 C60,41 57,40 55,40 Z M55,35 C62,35 68,39 68,45 C68,51 62,55 55,55 C48,55 42,51 42,45 C42,39 48,35 55,35 Z" fill="#1D3C78"/>
  <path d="M75,40 L75,60 L80,60 L80,50 L85,50 C90,50 90,40 85,40 L75,40 Z M81,44 L81,46 L85,46 C85,44 83,44 81,44 Z" fill="#1D3C78"/>
  <path d="M95,40 L95,60 L100,60 L100,40 L95,40 Z" fill="#1D3C78"/>
  <path d="M105,40 L115,40 C120,40 120,50 115,50 L110,50 L110,60 L105,60 L105,40 Z M110,44 L110,46 L115,46 C115,44 113,44 110,44 Z" fill="#1D3C78"/>
  <path d="M123,40 L123,60 L139,60 L139,56 L128,56 L128,52 L137,52 L137,48 L128,48 L128,44 L139,44 L139,40 L123,40 Z" fill="#1D3C78"/>
  <path d="M145,40 L145,60 L150,60 L150,52 L155,52 L159,60 L165,60 L160,52 C162,50 164,48 160,44 C156,40 150,40 145,40 Z M150,44 L150,48 L155,48 C157,48 157,44 155,44 L150,44 Z" fill="#1D3C78"/>
  <path d="M165,40 L165,60 L170,60 L170,50 L180,60 L188,60 L175,50 L188,40 L180,40 L170,48 L170,40 L165,40 Z" fill="#1D3C78"/>
</svg>